<svg xmlns="http://www.w3.org/2000/svg" xmlns:xlink="http://www.w3.org/1999/xlink" width="500" zoomAndPan="magnify" viewBox="0 0 375 374.999991" height="500" preserveAspectRatio="xMidYMid meet" version="1.0"><defs><clipPath id="627c84d1aa"><path d="M 61.378906 49.613281 L 313.378906 49.613281 L 313.378906 375 L 61.378906 375 Z M 61.378906 49.613281 " clip-rule="nonzero"/></clipPath></defs><rect x="-37.5" width="450" fill="#ffffff" y="-37.499999" height="449.999989" fill-opacity="1"/><rect x="-37.5" width="450" fill="#d9d9d9" y="-37.499999" height="449.999989" fill-opacity="1"/><g clip-path="url(#627c84d1aa)"><path fill="#737373" d="M 313.613281 350.414062 C 313.613281 263.589844 257.101562 193.246094 187.496094 193.246094 C 117.886719 193.246094 61.378906 263.589844 61.378906 350.414062 C 61.378906 363.953125 117.886719 374.992188 187.496094 374.992188 C 257.101562 374.992188 313.613281 363.953125 313.613281 350.414062 Z M 187.496094 49.617188 C 225.460938 49.617188 256.21875 80.375 256.21875 118.34375 C 256.21875 156.308594 225.460938 187.066406 187.496094 187.066406 C 149.527344 187.066406 118.769531 156.308594 118.769531 118.34375 C 118.769531 80.375 149.527344 49.617188 187.496094 49.617188 Z M 187.496094 49.617188 " fill-opacity="1" fill-rule="evenodd"/></g></svg>